solid STL file created by Vectorworks 2021 SP4 (Build 602791) (64-Bit)
 facet normal 0.00000000000000 1.00000000000000 0.00000000000000
  outer loop
   vertex -1508.95775863556787 228.40000000000003 2.99999999999995
   vertex -1758.08930987699159 228.40000000000003 2.99999999999995
   vertex -1758.08930987699159 228.40000000000003 80.00000000000000
  endloop
 endfacet
 facet normal -0.00000000000000 1.00000000000000 0.00000000000000
  outer loop
   vertex -1758.08930987699159 228.40000000000003 80.00000000000000
   vertex -1508.95775863556787 228.40000000000003 80.00000000000007
   vertex -1508.95775863556787 228.40000000000003 2.99999999999995
  endloop
 endfacet
 facet normal -1.00000000000000 0.00000000000000 -0.00000000000000
  outer loop
   vertex -1508.95775863556787 295.09999999999997 79.99999999999980
   vertex -1508.95775863556787 295.09999999999997 2.99999999999967
   vertex -1508.95775863556787 228.40000000000006 2.99999999999995
  endloop
 endfacet
 facet normal -1.00000000000000 0.00000000000000 0.00000000000000
  outer loop
   vertex -1508.95775863556787 228.40000000000006 2.99999999999995
   vertex -1508.95775863556787 228.40000000000003 80.00000000000007
   vertex -1508.95775863556787 295.09999999999997 79.99999999999980
  endloop
 endfacet
 facet normal -0.00000000000000 1.00000000000000 0.00000000000000
  outer loop
   vertex -1508.95775863556787 295.09999999999997 79.99999999999980
   vertex -1505.95775863556810 295.09999999999997 79.99999999999980
   vertex -1505.95775863556810 295.09999999999997 2.99999999999967
  endloop
 endfacet
 facet normal 0.00000000000000 1.00000000000000 0.00000000000000
  outer loop
   vertex -1505.95775863556810 295.09999999999997 2.99999999999967
   vertex -1508.95775863556787 295.09999999999997 2.99999999999967
   vertex -1508.95775863556787 295.09999999999997 79.99999999999980
  endloop
 endfacet
 facet normal 1.00000000000000 0.00000000000000 0.00000000000000
  outer loop
   vertex -1758.08930987699159 228.40000000000003 2.99999999999995
   vertex -1758.08930987699159 364.79999999999995 2.99999999999995
   vertex -1758.08930987699159 364.79999999999995 79.99999999999980
  endloop
 endfacet
 facet normal 1.00000000000000 0.00000000000000 0.00000000000000
  outer loop
   vertex -1758.08930987699159 364.79999999999995 79.99999999999980
   vertex -1758.08930987699159 228.40000000000003 80.00000000000007
   vertex -1758.08930987699159 228.40000000000003 2.99999999999995
  endloop
 endfacet
 facet normal 0.00000000000000 0.00000000000000 1.00000000000000
  outer loop
   vertex -1761.08930987699182 364.79999999999995 80.00000000000000
   vertex -1761.08930987699205 225.40000000000003 80.00000000000000
   vertex -1758.08930987699159 228.40000000000003 80.00000000000000
  endloop
 endfacet
 facet normal 0.00000000000000 0.00000000000000 1.00000000000000
  outer loop
   vertex -1505.95775863556855 225.40000000000003 80.00000000000000
   vertex -1508.95775863556787 228.40000000000003 80.00000000000000
   vertex -1758.08930987699159 228.40000000000003 80.00000000000000
  endloop
 endfacet
 facet normal 0.00000000000000 0.00000000000000 1.00000000000000
  outer loop
   vertex -1758.08930987699159 228.40000000000003 80.00000000000000
   vertex -1761.08930987699205 225.40000000000003 80.00000000000000
   vertex -1505.95775863556855 225.40000000000003 80.00000000000000
  endloop
 endfacet
 facet normal 0.00000000000000 0.00000000000000 1.00000000000000
  outer loop
   vertex -1505.95775863556810 295.09999999999997 80.00000000000000
   vertex -1508.95775863556787 295.09999999999997 80.00000000000000
   vertex -1508.95775863556787 228.40000000000003 80.00000000000000
  endloop
 endfacet
 facet normal -0.00000000000000 0.00000000000000 1.00000000000000
  outer loop
   vertex -1508.95775863556787 228.40000000000003 80.00000000000000
   vertex -1505.95775863556855 225.40000000000003 80.00000000000000
   vertex -1505.95775863556810 295.09999999999997 80.00000000000000
  endloop
 endfacet
 facet normal 0.00000000000000 -0.00000000000000 1.00000000000000
  outer loop
   vertex -1758.08930987699159 228.40000000000003 80.00000000000000
   vertex -1758.08930987699159 364.79999999999995 80.00000000000000
   vertex -1761.08930987699182 364.79999999999995 80.00000000000000
  endloop
 endfacet
 facet normal -1.00000000000000 0.00000000000000 0.00000000000000
  outer loop
   vertex -1761.08930987699205 225.40000000000003 0.00000000000000
   vertex -1761.08930987699205 225.40000000000003 80.00000000000000
   vertex -1761.08930987699205 364.79999999999995 79.99999999999980
  endloop
 endfacet
 facet normal -1.00000000000000 0.00000000000000 -0.00000000000000
  outer loop
   vertex -1761.08930987699205 364.79999999999995 79.99999999999980
   vertex -1761.08930987699205 364.79999999999995 0.00000000000000
   vertex -1761.08930987699205 225.40000000000003 0.00000000000000
  endloop
 endfacet
 facet normal 0.00000000000000 0.00000000000000 -1.00000000000000
  outer loop
   vertex -1761.08930987699182 364.79999999999995 0.00000000000000
   vertex -1505.95775863556833 364.79999999999995 0.00000000000000
   vertex -1505.95775863556855 225.40000000000003 0.00000000000000
  endloop
 endfacet
 facet normal 0.00000000000000 0.00000000000000 -1.00000000000000
  outer loop
   vertex -1505.95775863556855 225.40000000000003 0.00000000000000
   vertex -1761.08930987699182 225.40000000000003 0.00000000000000
   vertex -1761.08930987699182 364.79999999999995 0.00000000000000
  endloop
 endfacet
 facet normal -0.00000000000000 -1.00000000000000 0.00000000000000
  outer loop
   vertex -1505.95775863556855 225.40000000000003 80.00000000000000
   vertex -1761.08930987699205 225.40000000000003 80.00000000000000
   vertex -1761.08930987699182 225.40000000000003 0.00000000000000
  endloop
 endfacet
 facet normal 0.00000000000000 -1.00000000000000 0.00000000000000
  outer loop
   vertex -1761.08930987699182 225.40000000000003 0.00000000000000
   vertex -1505.95775863556855 225.40000000000003 0.00000000000000
   vertex -1505.95775863556855 225.40000000000003 80.00000000000000
  endloop
 endfacet
 facet normal 1.00000000000000 0.00000000000000 0.00000000000000
  outer loop
   vertex -1505.95775863556855 364.79999999999995 0.00000000000000
   vertex -1505.95775863556855 353.73413206859493 2.99999999999995
   vertex -1505.95775863556855 295.09999999999997 2.99999999999967
  endloop
 endfacet
 facet normal 1.00000000000000 0.00000000000000 0.00000000000000
  outer loop
   vertex -1505.95775863556855 364.79999999999990 79.99999999999973
   vertex -1505.95775863556855 353.73413206859493 79.99999999999973
   vertex -1505.95775863556855 353.73413206859493 2.99999999999995
  endloop
 endfacet
 facet normal 1.00000000000000 0.00000000000000 0.00000000000000
  outer loop
   vertex -1505.95775863556855 225.40000000000003 80.00000000000000
   vertex -1505.95775863556855 225.40000000000003 0.00000000000000
   vertex -1505.95775863556855 295.09999999999997 2.99999999999967
  endloop
 endfacet
 facet normal 1.00000000000000 -0.00000000000000 0.00000000000000
  outer loop
   vertex -1505.95775863556855 353.73413206859493 2.99999999999995
   vertex -1505.95775863556855 364.79999999999995 0.00000000000000
   vertex -1505.95775863556855 364.79999999999990 79.99999999999973
  endloop
 endfacet
 facet normal 1.00000000000000 0.00000000000000 0.00000000000000
  outer loop
   vertex -1505.95775863556855 295.09999999999997 2.99999999999967
   vertex -1505.95775863556855 225.40000000000003 0.00000000000000
   vertex -1505.95775863556855 364.79999999999995 0.00000000000000
  endloop
 endfacet
 facet normal 1.00000000000000 0.00000000000000 -0.00000000000000
  outer loop
   vertex -1505.95775863556855 295.09999999999997 2.99999999999967
   vertex -1505.95775863556855 295.09999999999997 79.99999999999980
   vertex -1505.95775863556855 225.40000000000003 80.00000000000000
  endloop
 endfacet
 facet normal 0.00000000000000 1.00000000000000 0.00000000000000
  outer loop
   vertex -1505.95775863556833 364.79999999999990 79.99999999999973
   vertex -1505.95775863556833 364.79999999999990 0.00000000000000
   vertex -1538.22123036118774 364.79999999999990 3.00000000000002
  endloop
 endfacet
 facet normal 0.00000000000000 1.00000000000000 0.00000000000000
  outer loop
   vertex -1761.08930987699182 364.79999999999990 0.00000000000000
   vertex -1758.08930987699159 364.79999999999990 2.99999999999995
   vertex -1538.22123036118774 364.79999999999990 3.00000000000002
  endloop
 endfacet
 facet normal 0.00000000000000 1.00000000000000 0.00000000000000
  outer loop
   vertex -1538.22123036118774 364.79999999999990 3.00000000000002
   vertex -1505.95775863556833 364.79999999999990 0.00000000000000
   vertex -1761.08930987699182 364.79999999999990 0.00000000000000
  endloop
 endfacet
 facet normal -0.00000000000000 1.00000000000000 0.00000000000000
  outer loop
   vertex -1761.08930987699182 364.79999999999990 79.99999999999980
   vertex -1758.08930987699159 364.79999999999990 79.99999999999980
   vertex -1758.08930987699159 364.79999999999990 2.99999999999995
  endloop
 endfacet
 facet normal 0.00000000000000 1.00000000000000 0.00000000000000
  outer loop
   vertex -1758.08930987699159 364.79999999999990 2.99999999999995
   vertex -1761.08930987699182 364.79999999999990 0.00000000000000
   vertex -1761.08930987699182 364.79999999999990 79.99999999999980
  endloop
 endfacet
 facet normal 0.00000000000000 1.00000000000000 0.00000000000000
  outer loop
   vertex -1538.22123036118774 364.79999999999990 3.00000000000002
   vertex -1538.22123036118774 364.79999999999990 79.99999999999973
   vertex -1505.95775863556833 364.79999999999990 79.99999999999973
  endloop
 endfacet
 facet normal -1.00000000000000 0.00000000000000 0.00000000000000
  outer loop
   vertex -1538.22123036118774 361.79999999999995 79.99999999999973
   vertex -1538.22123036118774 364.79999999999990 79.99999999999973
   vertex -1538.22123036118774 364.79999999999995 3.00000000000000
  endloop
 endfacet
 facet normal -1.00000000000000 -0.00000000000000 0.00000000000000
  outer loop
   vertex -1538.22123036118774 364.79999999999995 3.00000000000000
   vertex -1538.22123036118774 361.79999999999995 2.99999999999995
   vertex -1538.22123036118774 361.79999999999995 79.99999999999973
  endloop
 endfacet
 facet normal 0.00000000000000 0.00000000000000 1.00000000000000
  outer loop
   vertex -1758.08930987699159 364.79999999999995 3.00000000000000
   vertex -1758.08930987699159 228.40000000000003 3.00000000000000
   vertex -1538.22123036118774 361.79999999999995 3.00000000000000
  endloop
 endfacet
 facet normal 0.00000000000000 -0.00000000000000 1.00000000000000
  outer loop
   vertex -1508.95775863556855 353.73413206859493 3.00000000000000
   vertex -1508.95775863556855 361.79999999999995 3.00000000000000
   vertex -1538.22123036118774 361.79999999999995 3.00000000000000
  endloop
 endfacet
 facet normal 0.00000000000000 0.00000000000000 1.00000000000000
  outer loop
   vertex -1505.95775863556833 353.73413206859493 3.00000000000000
   vertex -1508.95775863556855 353.73413206859493 3.00000000000000
   vertex -1508.95775863556787 295.09999999999997 3.00000000000000
  endloop
 endfacet
 facet normal 0.00000000000000 0.00000000000000 1.00000000000000
  outer loop
   vertex -1758.08930987699159 228.40000000000003 3.00000000000000
   vertex -1508.95775863556787 228.40000000000006 3.00000000000000
   vertex -1508.95775863556787 295.09999999999997 3.00000000000000
  endloop
 endfacet
 facet normal 0.00000000000000 0.00000000000000 1.00000000000000
  outer loop
   vertex -1538.22123036118774 361.79999999999995 3.00000000000000
   vertex -1758.08930987699159 228.40000000000003 3.00000000000000
   vertex -1508.95775863556855 353.73413206859493 3.00000000000000
  endloop
 endfacet
 facet normal 0.00000000000000 0.00000000000000 1.00000000000000
  outer loop
   vertex -1508.95775863556787 295.09999999999997 3.00000000000000
   vertex -1508.95775863556855 353.73413206859493 3.00000000000000
   vertex -1758.08930987699159 228.40000000000003 3.00000000000000
  endloop
 endfacet
 facet normal 0.00000000000000 0.00000000000000 1.00000000000000
  outer loop
   vertex -1508.95775863556787 295.09999999999997 3.00000000000000
   vertex -1505.95775863556810 295.09999999999997 3.00000000000000
   vertex -1505.95775863556833 353.73413206859493 3.00000000000000
  endloop
 endfacet
 facet normal 0.00000000000000 -0.00000000000000 1.00000000000000
  outer loop
   vertex -1538.22123036118774 361.79999999999995 3.00000000000000
   vertex -1538.22123036118774 364.79999999999995 3.00000000000000
   vertex -1758.08930987699159 364.79999999999995 3.00000000000000
  endloop
 endfacet
 facet normal 0.00000000000000 -0.00000000000000 1.00000000000000
  outer loop
   vertex -1505.95775863556833 353.73413206859493 79.99999999999973
   vertex -1505.95775863556833 364.79999999999990 79.99999999999973
   vertex -1508.95775863556855 361.79999999999995 79.99999999999973
  endloop
 endfacet
 facet normal 0.00000000000000 0.00000000000000 1.00000000000000
  outer loop
   vertex -1538.22123036118774 364.79999999999990 79.99999999999973
   vertex -1538.22123036118774 361.79999999999995 79.99999999999973
   vertex -1508.95775863556855 361.79999999999995 79.99999999999973
  endloop
 endfacet
 facet normal 0.00000000000000 -0.00000000000000 1.00000000000000
  outer loop
   vertex -1508.95775863556855 361.79999999999995 79.99999999999973
   vertex -1505.95775863556833 364.79999999999990 79.99999999999973
   vertex -1538.22123036118774 364.79999999999990 79.99999999999973
  endloop
 endfacet
 facet normal 0.00000000000000 0.00000000000000 1.00000000000000
  outer loop
   vertex -1508.95775863556855 361.79999999999995 79.99999999999973
   vertex -1508.95775863556855 353.73413206859493 79.99999999999973
   vertex -1505.95775863556833 353.73413206859493 79.99999999999973
  endloop
 endfacet
 facet normal 0.00000000000000 -1.00000000000000 0.00000000000000
  outer loop
   vertex -1538.22123036118774 361.79999999999995 79.99999999999973
   vertex -1538.22123036118774 361.79999999999995 2.99999999999995
   vertex -1508.95775863556855 361.79999999999995 2.99999999999995
  endloop
 endfacet
 facet normal 0.00000000000000 -1.00000000000000 0.00000000000000
  outer loop
   vertex -1508.95775863556855 361.79999999999995 2.99999999999995
   vertex -1508.95775863556855 361.79999999999995 79.99999999999973
   vertex -1538.22123036118774 361.79999999999995 79.99999999999973
  endloop
 endfacet
 facet normal 0.00000000000000 -1.00000000000000 0.00000000000000
  outer loop
   vertex -1508.95775863556855 353.73413206859493 2.99999999999995
   vertex -1505.95775863556833 353.73413206859493 2.99999999999995
   vertex -1505.95775863556833 353.73413206859493 79.99999999999973
  endloop
 endfacet
 facet normal -0.00000000000000 -1.00000000000000 0.00000000000000
  outer loop
   vertex -1505.95775863556833 353.73413206859493 79.99999999999973
   vertex -1508.95775863556855 353.73413206859493 79.99999999999973
   vertex -1508.95775863556855 353.73413206859493 2.99999999999995
  endloop
 endfacet
 facet normal -1.00000000000000 0.00000000000000 0.00000000000000
  outer loop
   vertex -1508.95775863556855 353.73413206859493 2.99999999999995
   vertex -1508.95775863556855 353.73413206859493 79.99999999999973
   vertex -1508.95775863556855 361.79999999999995 79.99999999999973
  endloop
 endfacet
 facet normal -1.00000000000000 0.00000000000000 -0.00000000000000
  outer loop
   vertex -1508.95775863556855 361.79999999999995 79.99999999999973
   vertex -1508.95775863556855 361.79999999999995 2.99999999999995
   vertex -1508.95775863556855 353.73413206859493 2.99999999999995
  endloop
 endfacet
endsolid STL file created by Vectorworks 2021 SP4 (Build 602791) (64-Bit)
